# xmcd CD database file
# Copyright (C) 1997 Ti Kan
#
# Track frame offsets:
#  150
#  18600
#  36387
#  50760
#  65397
#  81820
#  99877
#  118402
#  131597
#  148162
#  167377
#  179290
#  196502
#  210660
#  224912
#
# Disc length: 3346 seconds
#
# Revision: 1
# Processed by: cddbd v1.4b41PL1 Copyright (c) Steve Scherf et al.
# Submitted via: CDWizzard Release:4.23
#
DISCID=e00d100f
DTITLE=Farrell And Farrell - The Early Works
DYEAR=1900
DGENRE=
TTITLE0=Make Me Ready
TTITLE1=EarthMaker
TTITLE2=Tho Know That I'm Loved By You
TTITLE3=Jailhouse Rock
TTITLE4=Boundless Love
TTITLE5=Fallen
TTITLE6=Old Friends
TTITLE7=Sonata
TTITLE8=Let The Whole World Know
TTITLE9=Scars
TTITLE10=Good Shepherd
TTITLE11=All You Need
TTITLE12=No Need
TTITLE13=After All Those Years ( A Wedding Song)
TTITLE14=Homesick Soldier
EXTD=
EXTT0=
EXTT1=
EXTT2=
EXTT3=
EXTT4=
EXTT5=
EXTT6=
EXTT7=
EXTT8=
EXTT9=
EXTT10=
EXTT11=
EXTT12=
EXTT13=
EXTT14=
PLAYORDER=
